<?xml version="1.0" standalone="no"?>
<!DOCTYPE svg PUBLIC "-//W3C//DTD SVG 20010904//EN"
 "http://www.w3.org/TR/2001/REC-SVG-20010904/DTD/svg10.dtd">
<svg version="1.0" xmlns="http://www.w3.org/2000/svg"
 width="992.000000pt" height="992.000000pt" viewBox="0 0 992.000000 992.000000"
 preserveAspectRatio="xMidYMid meet">
<metadata>
Created by potrace 1.11, written by Peter Selinger 2001-2013
</metadata>
<g transform="translate(0.000000,992.000000) scale(0.100000,-0.100000)"
fill="#000000" stroke="none">
<path d="M3485 9464 c-100 -24 -155 -43 -155 -53 0 -4 -6 -8 -13 -8 -33 0
-149 -91 -222 -174 -34 -38 -120 -178 -131 -212 -3 -12 -11 -28 -16 -34 -6 -7
-24 -39 -40 -70 -40 -77 -159 -306 -218 -418 -26 -49 -71 -137 -101 -195 -30
-58 -56 -107 -59 -110 -3 -3 -27 -50 -55 -105 -27 -55 -52 -102 -55 -105 -5
-5 -82 -152 -159 -305 -25 -49 -48 -92 -51 -95 -3 -3 -28 -48 -54 -100 -27
-52 -62 -122 -79 -155 -51 -98 -43 -209 19 -288 18 -22 249 -167 347 -216 15
-8 27 -18 27 -23 0 -4 4 -8 8 -8 9 0 92 -46 157 -86 22 -14 48 -27 58 -31 9
-3 17 -8 17 -12 0 -4 16 -13 35 -21 19 -8 35 -17 35 -21 0 -4 16 -13 35 -20
19 -7 35 -17 35 -21 0 -4 7 -8 15 -8 8 0 15 -4 15 -10 0 -5 5 -10 10 -10 6 0
43 -20 83 -44 39 -24 92 -54 117 -68 25 -14 74 -44 110 -67 36 -23 72 -44 80
-48 8 -4 33 -18 55 -32 22 -14 42 -26 45 -26 7 0 84 -47 90 -55 3 -3 16 -11
30 -17 14 -7 48 -26 75 -43 78 -47 114 -60 164 -60 114 0 170 44 252 195 30
55 59 108 64 117 6 10 27 50 48 90 22 40 45 80 53 89 8 8 14 21 14 28 0 7 8
25 18 39 17 25 33 53 125 222 16 30 48 89 70 130 23 41 46 78 51 82 6 4 7 8 2
8 -5 0 -4 6 1 13 9 10 31 50 92 162 9 17 18 32 21 35 3 3 21 37 41 75 62 118
74 140 79 145 3 3 19 32 35 65 17 32 36 65 43 73 6 7 12 17 12 21 0 5 27 56
60 114 33 59 60 111 60 116 0 5 5 11 11 13 5 2 11 10 12 18 2 8 7 22 12 30 18
27 30 48 70 124 21 42 42 76 46 76 4 0 10 12 14 27 4 16 11 34 17 41 13 15 51
82 79 139 23 46 30 47 52 5 26 -51 70 -127 88 -154 11 -14 19 -29 19 -33 0 -4
15 -33 34 -64 19 -31 46 -78 62 -106 15 -27 97 -171 182 -320 85 -148 166
-290 180 -315 14 -25 61 -108 105 -185 45 -77 94 -164 110 -194 l29 -54 -23
-18 c-13 -10 -27 -19 -30 -19 -12 0 -24 -69 -20 -113 1 -15 54 -71 68 -73 4 0
17 -4 28 -9 157 -65 543 -215 552 -215 7 0 13 -4 13 -8 0 -5 6 -9 13 -9 6 0
156 -59 332 -130 284 -114 343 -134 386 -124 18 4 51 43 65 77 19 44 64 164
68 179 1 6 10 27 19 49 9 21 17 41 17 45 0 4 13 40 28 81 33 86 39 103 40 110
1 3 14 37 30 75 16 39 30 75 32 80 6 21 13 42 40 115 16 41 45 120 65 175 20
55 40 108 46 117 5 10 9 23 9 29 0 6 6 25 14 42 34 77 66 170 72 207 13 78
-34 133 -112 133 l-41 0 -73 151 c-41 83 -110 225 -154 316 -44 91 -80 168
-78 173 1 4 -3 7 -8 7 -6 0 -10 4 -10 9 0 10 -194 414 -256 534 -19 37 -31 67
-27 67 4 0 3 4 -3 8 -5 4 -18 25 -28 47 -56 119 -152 232 -256 299 -76 49 -94
58 -180 88 l-65 23 -1515 2 c-1277 1 -1524 -1 -1575 -13z"/>
<path d="M8363 6028 c-18 -4 -72 -31 -120 -60 -48 -28 -98 -56 -110 -62 -13
-6 -23 -14 -23 -18 0 -5 -7 -8 -15 -8 -8 0 -15 -4 -15 -8 0 -5 -16 -14 -35
-22 -19 -8 -35 -17 -35 -22 0 -4 -7 -8 -15 -8 -8 0 -15 -4 -15 -10 0 -5 -4
-10 -9 -10 -5 0 -134 -74 -286 -165 -151 -91 -280 -165 -285 -165 -4 0 -10 -3
-12 -8 -3 -8 -234 -146 -260 -155 -10 -4 -18 -11 -18 -16 0 -5 -9 -13 -21 -16
-17 -6 -147 -81 -199 -115 -8 -6 -22 -13 -30 -17 -61 -28 -120 -101 -137 -168
-9 -35 -3 -140 7 -140 1 0 3 -8 5 -17 2 -9 15 -32 29 -51 14 -19 26 -39 26
-45 0 -7 5 -12 10 -12 6 0 10 -4 10 -9 0 -5 27 -50 60 -100 33 -50 60 -95 60
-101 0 -5 5 -10 10 -10 6 0 10 -7 10 -15 0 -8 5 -15 10 -15 6 0 10 -7 10 -15
0 -8 3 -15 8 -15 4 0 12 -9 17 -20 6 -11 46 -77 90 -145 44 -69 91 -143 105
-165 14 -22 63 -99 110 -172 47 -73 87 -137 89 -143 2 -5 7 -12 11 -15 7 -6
213 -329 219 -344 2 -6 7 -13 11 -16 5 -4 196 -302 260 -405 8 -13 68 -107
133 -208 64 -101 117 -186 117 -189 0 -3 -114 -5 -252 -4 -139 1 -270 -2 -290
-5 -21 -4 -38 -3 -38 1 0 7 -65 4 -86 -4 -7 -3 -15 -2 -18 1 -10 10 -60 11
-79 1 -9 -5 -23 -6 -29 -2 -16 10 -68 11 -68 1 0 -5 -5 -5 -12 -1 -16 10 -68
11 -68 1 0 -5 -5 -5 -12 -1 -16 10 -68 11 -68 1 0 -5 -5 -5 -12 -1 -14 9 -182
9 -196 0 -6 -3 -13 -3 -16 2 -2 4 -22 6 -43 5 -53 -4 -47 -4 -153 -2 -52 1
-99 0 -105 -1 -5 -1 -12 -1 -15 0 -16 6 -82 5 -86 -2 -3 -4 -14 -3 -25 2 -11
6 -17 15 -15 19 9 14 -45 53 -78 55 -17 2 -42 -3 -56 -10 -14 -8 -83 -75 -155
-150 -71 -75 -170 -178 -220 -229 -160 -164 -533 -550 -588 -608 -30 -32 -54
-63 -55 -70 0 -6 -3 -21 -5 -31 -6 -33 18 -66 138 -191 64 -66 196 -202 293
-303 97 -101 224 -232 282 -292 58 -59 148 -152 199 -206 93 -95 159 -143 172
-122 3 5 8 9 10 7 12 -7 47 15 61 38 l17 28 758 1 c806 1 822 2 930 50 21 10
41 16 46 16 4 -1 7 3 7 8 0 6 6 10 13 10 19 1 103 62 159 116 58 56 150 189
160 231 1 5 24 50 50 101 26 51 48 99 48 107 0 7 4 15 8 17 10 4 116 219 114
231 -1 4 3 7 8 7 6 0 10 4 10 10 0 15 133 284 145 292 5 4 7 8 3 8 -3 0 39 91
95 202 55 112 101 205 102 208 0 3 42 88 92 190 50 102 138 282 196 400 57
118 161 330 231 472 69 141 126 259 126 264 0 4 7 15 15 24 8 9 16 25 18 36 2
10 8 27 12 38 42 96 57 304 30 411 -7 27 -11 53 -8 57 2 5 -1 8 -8 8 -7 0 -10
3 -6 6 8 8 -47 127 -83 181 -17 24 -30 48 -30 53 0 4 -3 10 -7 12 -11 5 -53
66 -53 77 0 5 -3 11 -7 13 -6 2 -314 458 -378 558 -5 9 -19 30 -30 48 -11 17
-23 32 -27 32 -5 0 -8 4 -8 9 0 5 -83 134 -185 286 -102 152 -185 280 -185
285 0 5 -4 10 -8 12 -11 4 -72 94 -72 106 0 6 -4 12 -8 14 -11 4 -72 97 -72
109 0 5 -4 9 -8 9 -4 0 -16 15 -27 33 -41 70 -83 108 -138 126 -48 16 -96 19
-134 9z"/>
<path d="M2307 5763 c-2 -2 -24 -6 -48 -9 -24 -3 -57 -7 -74 -10 -16 -2 -50
-6 -75 -8 -25 -3 -89 -12 -144 -21 -95 -15 -137 -22 -201 -30 -16 -2 -30 -4
-30 -5 0 -1 -22 -4 -50 -6 -56 -5 -98 -11 -105 -14 -3 -2 -14 -3 -25 -4 -28
-2 -146 -18 -170 -22 -28 -5 -103 -15 -145 -19 -19 -2 -35 -5 -35 -5 0 -1 -11
-3 -25 -5 -14 -1 -50 -6 -80 -10 -30 -4 -62 -8 -71 -9 -85 -10 -130 -88 -103
-178 3 -10 9 -18 14 -18 16 0 -18 -64 -55 -105 -5 -7 -19 -28 -30 -48 -11 -20
-23 -37 -27 -37 -5 0 -8 -7 -8 -15 0 -8 -4 -15 -10 -15 -5 0 -10 -6 -10 -14 0
-8 -3 -16 -7 -18 -12 -5 -53 -66 -53 -78 0 -5 -4 -10 -9 -10 -5 0 -12 -8 -16
-19 -3 -10 -17 -31 -30 -47 -14 -16 -25 -34 -25 -41 0 -6 -3 -13 -7 -15 -5 -1
-57 -77 -118 -168 -60 -91 -112 -167 -115 -170 -3 -3 -21 -30 -40 -60 -19 -30
-43 -64 -52 -74 -10 -11 -18 -22 -18 -26 0 -3 -54 -86 -119 -185 -66 -98 -118
-182 -115 -186 2 -4 0 -10 -5 -13 -10 -6 -45 -106 -57 -161 -10 -47 -13 -232
-3 -273 4 -20 10 -48 13 -62 9 -49 37 -115 97 -229 34 -64 84 -159 112 -211
27 -52 74 -142 105 -200 30 -58 64 -120 74 -137 11 -18 16 -33 13 -33 -4 0 -3
-6 3 -12 6 -7 31 -53 57 -103 68 -129 151 -287 200 -380 23 -44 68 -129 100
-190 32 -60 77 -146 100 -190 109 -205 132 -249 198 -375 38 -74 75 -138 81
-142 6 -4 7 -8 2 -8 -4 0 0 -12 9 -27 19 -28 72 -126 113 -208 14 -27 30 -53
36 -57 6 -4 7 -8 3 -8 -5 0 0 -15 11 -32 10 -18 32 -58 48 -88 15 -30 41 -74
56 -97 15 -23 28 -44 28 -47 0 -4 24 -31 53 -62 111 -119 262 -200 407 -219
30 -5 582 -8 1225 -9 l1170 -1 45 24 c53 27 84 59 113 115 l22 41 2 930 c2
824 1 936 -13 980 -9 28 -19 52 -23 55 -3 3 -11 14 -17 25 -16 30 -85 75 -125
82 -19 4 -640 7 -1380 7 -896 1 -1346 4 -1345 11 1 5 10 24 20 40 42 66 62
101 76 130 8 17 19 37 26 45 6 8 28 47 49 85 21 39 41 72 44 75 3 3 13 19 21
35 8 17 26 48 40 70 13 22 30 51 37 64 45 84 59 107 64 111 3 3 19 30 35 60
16 30 31 57 34 60 3 3 16 25 29 50 13 25 29 51 34 58 6 8 20 31 31 52 18 34
58 103 118 205 10 17 29 50 43 75 14 25 29 52 35 60 35 55 90 153 90 161 0 4
15 2 34 -6 53 -22 103 -8 139 38 20 27 24 42 22 82 -4 67 -12 142 -20 185 -4
19 -8 55 -10 80 -2 25 -6 54 -8 65 -3 11 -8 49 -12 85 -7 71 -13 112 -20 150
-3 14 -7 51 -9 82 -2 31 -7 61 -10 67 -4 5 -6 22 -5 38 0 15 -2 46 -6 68 -3
22 -8 58 -11 80 -3 22 -7 54 -10 70 -2 17 -6 53 -9 80 -3 28 -7 64 -10 80 -2
17 -11 82 -20 145 -9 63 -20 117 -25 118 -6 2 -10 10 -10 17 0 21 -108 64
-123 48z"/>
</g>
</svg>
